<svg xmlns="http://www.w3.org/2000/svg" viewBox="0 0 512 512">
  <rect width="512" height="512" rx="108" fill="#fff8ef"/>
  <circle cx="256" cy="250" r="174" fill="#efb886"/>
  <path d="M126 244c18-72 74-118 130-118s112 46 130 118c-30-24-78-38-130-38s-100 14-130 38z" fill="#f7c99e"/>
  <ellipse cx="200" cy="214" rx="26" ry="31" fill="#1d1d24"/>
  <ellipse cx="312" cy="214" rx="26" ry="31" fill="#1d1d24"/>
  <path d="M132 286c14 86 68 138 124 138s110-52 124-138c-32 32-76 48-124 48s-92-16-124-48z" fill="#241016"/>
  <path d="M152 290c24 24 62 38 104 38s80-14 104-38" fill="none" stroke="#fffdf7" stroke-width="32" stroke-linecap="round"/>
  <path d="M171 312l24 54 25-52 24 57 28-57 24 57 25-52 24 54" fill="#fffdf7"/>
  <path d="M216 392c18 16 62 16 80 0-11-22-69-22-80 0z" fill="#e45578"/>
  <path d="M128 280c38 44 82 66 128 66s90-22 128-66" fill="none" stroke="#1d1d24" stroke-width="18" stroke-linecap="round"/>
  <path d="M180 140c24-26 128-26 152 0" fill="none" stroke="#8f1f2e" stroke-width="18" stroke-linecap="round"/>
</svg>
